<svg width="1616" height="364" viewBox="0 0 1616 364" fill="none" xmlns="http://www.w3.org/2000/svg">
<path d="M45.17 3.61969L22.61 21.8397C8.31 33.3897 0 50.7897 0 69.1697V347.39C0 360.91 15.61 368.46 26.21 360.06L48.44 342.45C63.01 330.91 71.5 313.34 71.5 294.76V16.1997C71.5 2.60969 55.75 -4.92031 45.17 3.61969Z" fill="#9AD828"/>
<path d="M140.15 148.5L108.98 173.26C99.6099 180.7 94.1599 191.91 94.1599 203.76V271.5C94.1599 284.99 110 292.53 120.75 284.15L151.75 260C161.29 252.56 166.86 241.24 166.86 229.27V161.06C166.86 147.5 150.88 139.99 140.15 148.51V148.5Z" fill="#9AD828"/>
<mask id="mask0_1_17" style="mask-type:luminance" maskUnits="userSpaceOnUse" x="299" y="35" width="1317" height="292">
<path d="M1616 35H299V327H1616V35Z" fill="white"/>
</mask>
<g mask="url(#mask0_1_17)">
<path d="M355.72 50.074V124.524C367.37 121.894 379.39 120.764 391.03 120.764C445.13 120.764 472.18 148.564 472.18 198.524V245.484C472.18 299.954 442.88 327.384 383.9 327.384C354.6 327.384 330.93 323.254 312.9 314.984C300.88 308.974 299 305.964 299 293.944V76.654C299 68.8041 302.56 61.374 308.68 56.464L331.25 38.344C341.1 30.434 355.73 37.444 355.73 50.084L355.72 50.074ZM415.07 198.914C415.07 180.504 404.55 171.494 383.51 171.494C374.12 171.494 365.1 172.994 355.71 175.624V271.794C355.71 272.924 356.09 273.294 356.84 273.674C363.23 275.554 371.12 276.684 380.88 276.684C403.8 276.684 415.07 266.164 415.07 245.504V198.924V198.914Z" fill="white"/>
<path d="M1077.38 50.074V124.524C1089.03 121.894 1101.05 120.764 1112.69 120.764C1166.79 120.764 1193.84 148.564 1193.84 198.524V245.484C1193.84 299.954 1164.54 327.384 1105.56 327.384C1076.26 327.384 1052.59 323.254 1034.56 314.984C1022.54 308.974 1020.66 305.964 1020.66 293.944V76.654C1020.66 68.8041 1024.22 61.374 1030.34 56.464L1052.91 38.344C1062.76 30.434 1077.39 37.444 1077.39 50.084L1077.38 50.074ZM1136.74 198.914C1136.74 180.504 1126.22 171.494 1105.18 171.494C1095.79 171.494 1086.77 172.994 1077.38 175.624V271.794C1077.38 272.924 1077.76 273.294 1078.51 273.674C1084.9 275.554 1092.79 276.684 1102.55 276.684C1125.47 276.684 1136.74 266.164 1136.74 245.504V198.924V198.914Z" fill="white"/>
<path d="M586.81 120.774C642.79 120.774 670.59 147.074 670.59 200.044V295.464C670.59 308.614 667.58 312.744 656.69 317.254C641.66 324.014 617.99 327.394 585.69 327.394C553.39 327.394 530.84 322.514 518.44 312.364C506.04 302.224 499.66 286.814 499.66 265.404C499.66 219.194 524.08 203.794 587.19 203.794C596.96 203.794 605.97 204.174 613.86 204.544V196.284C613.86 177.874 604.09 168.484 584.93 168.484C571.03 168.484 560.89 172.994 553.75 182.384C547.36 191.024 545.11 192.524 534.59 188.394L513.93 179.754C504.54 175.624 501.91 169.234 506.42 159.844C520.32 133.924 546.99 120.774 586.81 120.774ZM613.86 247.754C611.61 247.754 606.72 247.754 599.21 247.374C591.7 246.994 586.06 246.994 582.3 246.994C562.39 246.994 556.38 253.384 556.38 265.024C556.38 276.664 562.01 283.434 581.55 283.434C594.7 283.434 604.84 283.054 611.23 281.934C613.11 281.554 613.86 280.434 613.86 279.304V247.744V247.754Z" fill="white"/>
<path d="M906.2 120.774C957.67 120.774 983.59 146.694 983.59 198.534V307.854C983.59 315.534 977.37 321.754 969.69 321.754H940.76C933.08 321.754 926.86 315.534 926.86 307.854V200.034C926.86 181.624 917.47 172.234 898.31 172.234C889.67 172.234 881.03 173.364 872.39 175.994C873.89 182.754 874.64 190.264 874.64 198.914V307.864C874.64 315.544 868.42 321.764 860.74 321.764H831.81C824.13 321.764 817.91 315.544 817.91 307.864V200.044C817.91 181.634 808.52 172.244 789.36 172.244C782.6 172.244 775.08 173.374 767.19 175.244C766.06 175.244 765.69 175.994 765.69 177.494V307.854C765.69 315.534 759.47 321.754 751.79 321.754H722.86C715.18 321.754 708.96 315.534 708.96 307.854V156.084C708.96 143.684 711.96 139.174 723.99 134.294C745.78 125.274 770.2 120.774 797.25 120.774C815.66 120.774 831.06 124.154 843.08 131.294C861.49 124.154 882.53 120.774 906.19 120.774H906.2Z" fill="white"/>
<path d="M1227.13 200.044C1227.13 150.074 1258.31 120.774 1316.54 120.774C1374.77 120.774 1406.33 150.074 1406.33 200.044V248.504C1406.33 298.464 1375.15 327.394 1316.54 327.394C1257.93 327.394 1227.13 298.094 1227.13 248.504V200.044ZM1349.6 199.284C1349.6 180.504 1338.7 171.104 1316.54 171.104C1294.38 171.104 1283.85 180.494 1283.85 199.284V248.874C1283.85 267.654 1294.75 277.054 1316.54 277.054C1338.33 277.054 1349.6 267.664 1349.6 248.874V199.284Z" fill="white"/>
<path d="M1436.81 200.044C1436.81 150.074 1467.99 120.774 1526.22 120.774C1584.45 120.774 1616.01 150.074 1616.01 200.044V248.504C1616.01 298.464 1584.83 327.394 1526.22 327.394C1467.61 327.394 1436.81 298.094 1436.81 248.504V200.044ZM1559.28 199.284C1559.28 180.504 1548.38 171.104 1526.22 171.104C1504.06 171.104 1493.53 180.494 1493.53 199.284V248.874C1493.53 267.654 1504.43 277.054 1526.22 277.054C1548.01 277.054 1559.28 267.664 1559.28 248.874V199.284Z" fill="white"/>
</g>
</svg>
