<?xml version="1.0" encoding="UTF-8"?>
<svg width="1814px" height="645px" viewBox="0 0 1814 645" version="1.1" xmlns="http://www.w3.org/2000/svg" xmlns:xlink="http://www.w3.org/1999/xlink">
    <title>Logo </title>
    <g id="----2.1-Logotypes-&amp;-Icons---🚧" stroke="none" stroke-width="1" fill="none" fill-rule="evenodd">
        <g id="Logo-" fill-rule="nonzero">
            <g id="Group" transform="translate(425.2058, 182.9866)" fill="#FFFFFF">
                <path d="M59.8223971,15.9643612 L59.8223971,94.6001804 C72.0936581,91.8176376 84.7701021,90.6292599 97.0703047,90.6292599 C154.114303,90.6292599 182.621832,119.990884 182.621832,172.743258 L182.621832,222.336286 C182.621832,279.871156 151.712146,308.826992 89.5165333,308.826992 C58.6068477,308.826992 33.6591426,304.450284 14.6444765,295.725853 C1.96803242,289.378177 0,286.218832 0,273.494495 L0,43.9926831 C0,35.7030243 3.76241491,27.8481378 10.2164036,22.6598549 L34.0064425,3.52987305 C44.396496,-4.81775538 59.8223971,2.57337396 59.8223971,15.9353764 L59.8223971,15.9643612 Z M122.394251,173.149045 C122.394251,153.70023 111.309598,144.193209 89.1113501,144.193209 C79.2133047,144.193209 69.6915008,145.787374 59.7934555,148.569917 L59.7934555,250.132729 C59.7934555,251.321107 60.1696969,251.726895 60.9800632,252.103697 C67.7234684,254.074665 76.0297229,255.263043 86.3329514,255.263043 C110.499232,255.263043 122.394251,244.161856 122.394251,222.336286 L122.394251,173.12006 L122.394251,173.12006 L122.394251,173.149045 Z" id="Shape"></path>
                <path d="M820.814226,15.9643612 L820.814226,94.6001804 C833.085487,91.8176376 845.761931,90.6292599 858.062133,90.6292599 C915.106132,90.6292599 943.61366,119.990884 943.61366,172.743258 L943.61366,222.336286 C943.61366,279.871156 912.703974,308.826992 850.508362,308.826992 C819.598676,308.826992 794.650971,304.450284 775.636305,295.725853 C762.959861,289.378177 760.991828,286.218832 760.991828,273.494495 L760.991828,43.9926831 C760.991828,35.7030243 764.754243,27.8481378 771.208232,22.6598549 L794.998271,3.52987305 C805.388324,-4.81775538 820.814226,2.57337396 820.814226,15.9353764 L820.814226,15.9353764 L820.814226,15.9643612 Z M883.415021,173.149045 C883.415021,153.70023 872.330368,144.193209 850.13212,144.193209 C840.234075,144.193209 830.712271,145.787374 820.814226,148.569917 L820.814226,250.132729 C820.814226,251.321107 821.190467,251.726895 822.000833,252.103697 C828.744239,254.074665 837.050493,255.263043 847.353722,255.263043 C871.520002,255.263043 883.415021,244.161856 883.415021,222.336286 L883.415021,173.12006 L883.415021,173.12006 L883.415021,173.149045 Z" id="Shape"></path>
                <path d="M303.511117,90.6292599 C362.523148,90.6292599 391.841042,118.396718 391.841042,174.337423 L391.841042,275.117645 C391.841042,289.001374 388.686402,293.378082 377.196566,298.131593 C361.33654,305.261859 336.388835,308.855977 302.324509,308.855977 C268.260183,308.855977 244.470144,303.696679 231.417459,293.00128 C218.335832,282.276896 211.621368,266.016411 211.621368,243.408251 C211.621368,194.597813 237.379439,178.337328 303.9163,178.337328 C314.219528,178.337328 323.741332,178.714131 332.047587,179.119918 L332.047587,170.395487 C332.047587,150.946672 321.744358,141.033864 301.543084,141.033864 C286.898608,141.033864 276.190196,145.787374 268.665366,155.700183 C261.921961,164.830401 259.548746,166.424567 248.464092,162.047859 L226.671028,152.91764 C216.772982,148.540932 213.994584,141.816454 218.741015,131.903645 C233.385491,104.541974 261.516778,90.6582447 303.511117,90.6582447 L303.511117,90.6582447 L303.511117,90.6292599 Z M332.018645,224.713042 C329.64543,224.713042 324.493815,224.713042 316.563802,224.307254 C308.633789,223.930451 302.700751,223.930451 298.735744,223.930451 C277.753045,223.930451 271.414823,230.683915 271.414823,242.973479 C271.414823,255.263043 277.347862,262.422294 297.954319,262.422294 C311.817371,262.422294 322.525783,262.045491 329.240246,260.828128 C331.237221,260.451326 332.018645,259.233963 332.018645,258.045586 L332.018645,224.713042 L332.018645,224.713042 Z" id="Shape"></path>
                <path d="M640.276193,90.6292599 C694.541793,90.6292599 721.891655,117.990931 721.891655,172.743258 L721.891655,293.638946 C721.891655,301.754696 715.3219,308.305265 707.247179,308.305265 L676.742676,308.305265 C668.639013,308.305265 662.0982,301.725711 662.0982,293.638946 L662.0982,174.337423 C662.0982,154.888608 652.200154,144.975799 631.99888,144.975799 C622.88226,144.975799 613.79458,146.164177 604.67796,148.94672 C606.269751,156.076986 607.051175,164.018827 607.051175,173.149045 L607.051175,293.638946 C607.051175,301.754696 600.48142,308.305265 592.406699,308.305265 L561.902196,308.305265 C553.798533,308.305265 547.25772,301.725711 547.25772,293.638946 L547.25772,174.337423 C547.25772,154.888608 537.359674,144.975799 517.158401,144.975799 C510.038754,144.975799 502.108741,146.164177 493.773545,148.135145 C492.586937,148.135145 492.181754,148.917735 492.181754,150.5119 L492.181754,293.638946 C492.181754,301.754696 485.611999,308.305265 477.537277,308.305265 L447.032775,308.305265 C438.929112,308.305265 432.388298,301.725711 432.388298,293.638946 L432.388298,127.90374 C432.388298,114.802601 435.542939,110.04909 448.219383,104.889792 C471.199055,95.3827706 496.957127,90.6002751 525.464655,90.6002751 C544.884504,90.6002751 561.120772,94.1654081 573.797216,101.701462 C593.217065,94.1654081 615.386371,90.6002751 640.363018,90.6002751 L640.39196,90.6002751 L640.276193,90.6292599 Z" id="Path"></path>
                <path d="M978.719885,174.337423 C978.719885,121.585049 1011.5976,90.6292599 1073.01179,90.6292599 C1134.42598,90.6292599 1167.67994,121.585049 1167.67994,174.337423 L1167.67994,225.524617 C1167.67994,278.276991 1134.80222,308.826992 1073.01179,308.826992 C1011.22136,308.826992 978.719885,277.871203 978.719885,225.524617 L978.719885,174.337423 L978.719885,174.337423 Z M1107.85754,173.554833 C1107.85754,153.729215 1096.36771,143.816406 1072.98285,143.816406 C1049.59799,143.816406 1038.51334,153.729215 1038.51334,173.554833 L1038.51334,225.930404 C1038.51334,245.785006 1050.00318,255.66883 1072.98285,255.66883 C1095.96252,255.66883 1107.85754,245.756022 1107.85754,225.930404 L1107.85754,173.554833 L1107.85754,173.554833 Z" id="Shape"></path>
                <path d="M1199.83412,174.337423 C1199.83412,121.585049 1232.71183,90.6292599 1294.12602,90.6292599 C1355.54021,90.6292599 1388.79417,121.585049 1388.79417,174.337423 L1388.79417,225.524617 C1388.79417,278.276991 1355.91645,308.826992 1294.12602,308.826992 C1232.33559,308.826992 1199.83412,277.871203 1199.83412,225.524617 L1199.83412,174.337423 L1199.83412,174.337423 Z M1328.97177,173.554833 C1328.97177,153.729215 1317.48194,143.816406 1294.09708,143.816406 C1270.71222,143.816406 1259.62757,153.729215 1259.62757,173.554833 L1259.62757,225.930404 C1259.62757,245.785006 1271.11741,255.66883 1294.09708,255.66883 C1317.07675,255.66883 1328.97177,245.756022 1328.97177,225.930404 L1328.97177,173.554833 L1328.97177,173.554833 Z" id="Shape"></path>
            </g>
            <g id="Group" fill="#9AD828">
                <path d="M79.9003447,6.41538422 L40.0079456,38.678806 C14.7032811,59.1653555 0,89.9819871 0,122.563703 L0,615.456193 C0,639.415039 27.6155928,652.783381 46.3629983,637.910378 L85.6776654,606.717581 C111.444516,586.259967 126.465549,555.153977 126.465549,522.225032 L126.465549,28.6959535 C126.465549,4.62136435 98.5899771,-8.71804144 79.9003447,6.41538422 L79.9003447,6.41538422 Z" id="Path"></path>
                <path d="M247.875943,263.075968 L192.731417,306.942648 C176.150507,320.137375 166.531268,339.987336 166.531268,360.965794 L166.531268,480.962575 C166.531268,504.863549 194.551273,518.202955 213.558658,503.358888 L268.385431,460.562833 C285.284094,447.397042 295.105539,427.34453 295.105539,406.134585 L295.105539,285.298666 C295.105539,261.281949 266.825555,247.971479 247.875943,263.075968 L247.875943,263.075968 Z" id="Path"></path>
            </g>
        </g>
    </g>
</svg>